<svg width="1300" height="1300" viewBox="0 0 1300 1300" fill="none" xmlns="http://www.w3.org/2000/svg">
<mask id="mask0_409_3699" style="mask-type:alpha" maskUnits="userSpaceOnUse" x="0" y="0" width="1296" height="1296">
<circle cx="647.869" cy="647.869" r="647.869" fill="#D9D9D9"/>
</mask>
<g mask="url(#mask0_409_3699)">
<path d="M1003.04 1182.75C1000.07 1184.87 996.667 1186.99 993.693 1189.12C990.295 1191.24 987.321 1193.37 983.922 1195.07C980.948 1196.76 978.399 1198.46 975.425 1200.16C975 1200.59 974.576 1200.59 974.151 1201.01C964.38 1206.96 954.183 1212.48 943.987 1217.58C941.013 1219.28 937.615 1220.98 934.641 1222.26C934.641 1222.26 934.216 1222.68 933.791 1222.68C930.393 1224.38 926.994 1226.08 923.595 1227.78C916.798 1231.18 909.576 1234.15 902.778 1237.12C899.38 1238.82 895.556 1240.1 892.157 1241.37C888.759 1242.65 884.935 1244.35 881.536 1245.62C878.138 1246.9 874.314 1248.59 870.915 1249.87C870.915 1249.87 870.915 1249.87 870.491 1249.87C867.092 1251.14 863.268 1252.42 859.87 1253.69C852.223 1256.24 844.151 1258.79 836.504 1261.34C833.955 1262.19 830.981 1263.04 828.432 1263.89C820.36 1266.44 812.288 1268.56 804.216 1270.26C801.242 1271.11 798.268 1271.54 794.87 1272.39C787.223 1274.09 779.151 1275.78 771.504 1277.48C769.804 1277.91 768.53 1277.91 766.831 1278.33C764.281 1278.76 761.308 1279.18 758.759 1279.61C754.935 1280.03 751.536 1280.88 747.713 1281.31C746.013 1281.73 744.314 1281.73 742.615 1282.16C740.491 1282.58 737.942 1283.01 735.393 1283.01C728.595 1283.86 721.373 1284.71 714.576 1285.56C712.451 1285.98 709.902 1285.98 707.778 1286.41H707.353C704.38 1286.83 701.406 1286.83 698.432 1287.25C695.458 1287.68 692.484 1287.68 689.51 1287.68C687.811 1287.68 685.687 1288.1 683.987 1288.1C680.589 1288.1 677.615 1288.53 674.641 1288.53C670.393 1288.53 666.569 1288.95 662.321 1288.95C658.072 1288.95 654.249 1288.95 650 1288.95C647.027 1288.95 644.053 1288.95 641.079 1288.95C461.798 1286.41 300.785 1210.36 185.654 1089.71C185.654 1089.71 185.654 1089.28 185.229 1089.28C172.484 1077.81 183.53 1016.63 234.935 977.974C299.51 929.118 454.151 898.53 454.151 898.53C454.151 898.53 514.053 888.758 736.242 935.066C866.242 962.255 965.229 1001.76 1020.46 1108.82C1031.93 1130.92 1043.4 1164.9 1003.04 1182.75Z" fill="white"/>
<path d="M737.517 930.392C819.086 946.961 906.177 964.804 973.301 1018.76C995.818 1037.03 1010.69 1063.79 1023.01 1089.71C1028.96 1102.45 1034.9 1115.62 1039.58 1129.64C1042.12 1138.99 1045.95 1149.61 1043.82 1160.65C1043.4 1163.63 1040.85 1167.45 1038.73 1169.58C1028.96 1179.35 1018.33 1185.29 1007.71 1192.94C945.262 1236.27 873.465 1266.86 799.118 1283.01C633.432 1319.12 454.151 1291.08 308.432 1203.99C260.001 1174.67 215.393 1138.99 177.158 1096.93C172.909 1091.83 172.909 1083.33 172.909 1077.81C173.334 1065.07 176.733 1052.75 180.981 1041.27C191.177 1014.93 204.347 988.595 226.863 970.327C243.007 959.281 260.426 949.935 278.269 942.288C334.347 918.497 393.399 901.928 454.151 895.131C459.249 894.706 460.099 901.928 455.001 902.778C396.798 914.673 339.02 932.516 285.066 956.732C265.524 966.503 244.707 975 228.988 990.294C214.118 1006.44 203.497 1026.41 195.001 1046.8C189.478 1059.12 185.654 1078.66 187.354 1088.43C214.118 1120.29 245.556 1148.33 279.543 1172.55C465.622 1302.55 748.138 1311.05 946.112 1202.71C963.955 1192.94 981.373 1181.9 997.942 1170.42C1006.01 1164.9 1014.51 1160.23 1020.88 1153.86C1021.31 1153.43 1020.88 1153.86 1020.88 1154.28C1020.88 1154.71 1020.46 1155.13 1020.46 1155.13C1020.88 1150.03 1019.18 1143.24 1017.06 1136.44C1009.41 1111.8 997.092 1085.88 983.922 1063.37C963.105 1029.8 927.844 1008.56 892.158 991.569C867.517 980.098 841.602 971.177 815.262 962.68C788.922 954.183 762.158 946.961 735.393 940.588C728.596 938.889 730.72 929.118 737.517 930.392Z" fill="black"/>
<path d="M1061.24 1243.07C1053.17 1180.2 1017.48 1074.41 995.815 1045.95C972.025 1014.93 962.253 1005.16 882.809 978.398C878.561 957.156 862.842 903.627 844.149 881.11C815.685 838.202 737.94 828.431 714.574 833.529C714.574 833.529 588.822 789.346 443.953 789.346C398.07 799.542 344.966 820.359 316.077 864.117C296.534 893.006 318.626 902.352 308.855 928.692C306.306 935.49 246.829 969.476 222.613 989.869C211.567 998.79 199.247 1021.31 190.75 1050.62C173.757 1110.52 192.025 1193.37 170.783 1265.59C129.998 1404.93 47.1553 1446.57 47.1553 1446.57H1144.93C1144.08 1446.14 1078.66 1375.62 1061.24 1243.07Z" fill="white"/>
<path d="M1054.87 1243.92C1046.37 1188.27 1029.38 1133.04 1007.71 1081.21C997.091 1056.14 980.948 1031.93 958.431 1017.06C946.961 1009.84 934.216 1004.31 921.046 998.792C907.876 993.693 894.281 989.02 881.111 984.347C878.987 983.497 877.287 981.798 876.863 979.674C875.163 971.177 873.039 963.105 870.49 954.608C859.444 920.197 847.549 881.961 815.261 861.994C790.621 847.125 761.307 839.903 732.843 838.628C727.32 838.628 721.372 838.628 716.274 839.478H714.575C714.15 839.478 713.301 839.478 712.876 839.053C692.484 829.282 669.967 823.334 647.876 817.386C581.601 802.092 512.353 795.72 444.379 795.295C402.745 805.066 344.542 828.007 319.052 870.491C314.804 877.288 312.68 884.086 313.529 891.733C314.379 900.229 317.353 909.576 315.229 918.497C314.379 922.321 313.529 926.569 311.83 929.968C308.431 934.641 302.908 937.615 298.66 940.589C276.569 955.033 254.052 967.778 232.81 982.648C225.588 987.746 218.791 992.419 213.693 999.641C198.823 1020.88 189.902 1046.37 186.078 1071.86C179.281 1123.69 186.078 1176.37 179.281 1228.2C171.634 1280.03 151.667 1330.16 123.627 1374.35C104.085 1404.09 80.294 1431.7 50.1306 1450.82L47.1568 1438.92H1144.93L1140.26 1449.54C1127.52 1435.1 1117.32 1419.38 1107.97 1402.81C1079.08 1354.38 1062.09 1299.58 1054.87 1243.92ZM1067.61 1242.22C1072.29 1278.33 1081.21 1314.02 1094.8 1348.01C1108.4 1381.57 1125.39 1414.28 1149.18 1441.9C1152.58 1445.72 1149.61 1452.94 1144.51 1452.52H46.7319C43.3332 1452.52 40.3594 1449.54 40.3594 1446.14C40.3594 1443.6 41.6339 1441.47 43.7581 1440.62C50.5555 1436.8 57.3528 1431.28 63.7254 1425.75C119.379 1375.62 154.216 1301.28 165.686 1227.35C175.457 1158.11 157.189 1083.33 188.202 1017.48C195.425 1002.19 204.346 986.046 218.791 976.275C245.131 956.733 274.019 942.288 299.935 923.171C300.359 923.171 300.359 922.746 300.359 922.746C299.935 923.171 299.51 924.02 299.51 924.445C302.059 918.497 302.908 913.399 302.059 906.602C300.784 898.105 298.66 886.635 301.634 877.713C302.908 872.615 305.457 867.942 308.006 864.118C338.595 818.236 392.549 797.844 443.954 786.373C458.399 786.798 473.268 784.249 487.712 784.249C507.68 784.249 528.072 787.223 548.039 789.772C605.392 798.693 660.621 813.988 717.124 826.308L713.3 825.883C726.47 823.334 738.791 824.608 751.536 826.308C833.104 838.628 860.719 874.314 882.81 950.36C885.359 958.857 887.484 967.354 889.608 976.275L885.359 971.177C926.144 985.622 972.026 998.791 997.941 1036.6C1007.29 1048.07 1014.08 1061.67 1020.03 1075.26C1041.7 1129.64 1058.69 1184.45 1067.61 1242.22Z" fill="black"/>
<path d="M391.7 963.531C423.138 1030.66 471.995 1087.58 530.197 1132.62C532.321 1134.32 530.197 1137.71 527.648 1136.44C475.818 1111.8 432.06 1069.74 406.145 1018.76C397.648 1001.77 390.426 983.499 387.877 964.381C387.027 962.257 390.426 961.407 391.7 963.531Z" fill="black"/>
<path d="M889.184 977.55C890.459 1048.5 861.57 1121.14 806.341 1167.03C805.067 1168.3 803.367 1167.88 802.093 1166.6C800.818 1165.33 801.243 1163.63 802.518 1162.35C814.838 1150.46 827.158 1138.14 836.505 1123.69C856.047 1095.65 867.942 1062.52 873.465 1028.96C876.014 1012.39 877.714 994.543 876.439 977.975C876.014 969.903 888.759 969.053 889.184 977.55Z" fill="black"/>
<path d="M638.954 1146.21C629.183 1180.62 621.111 1218.01 625.785 1253.69C627.059 1261.77 614.739 1263.89 613.039 1255.39C610.915 1235.85 613.464 1216.73 616.863 1198.04C620.687 1179.35 625.36 1161.5 631.732 1143.66C633.432 1139.41 640.654 1141.54 638.954 1146.21Z" fill="black"/>
<path d="M774.052 1139.84C788.071 1170 797.843 1201.44 805.49 1233.3C806.339 1236.7 804.215 1240.1 800.817 1240.95C797.418 1241.8 794.019 1239.67 793.169 1236.28C788.921 1212.48 783.398 1188.69 775.751 1165.33C773.202 1157.68 770.653 1150.03 767.679 1142.39C765.98 1138.56 771.928 1135.59 774.052 1139.84Z" fill="black"/>
<path d="M317.777 926.994C333.496 1012.81 393.823 1085.46 466.47 1131.77C491.111 1147.48 517.451 1161.08 544.64 1172.12C546.34 1172.97 547.189 1174.67 546.34 1176.37C545.915 1178.07 543.791 1178.92 542.516 1178.07C514.477 1167.88 487.287 1155.13 461.797 1139.84C409.967 1109.25 364.509 1066.77 333.921 1014.94C318.202 988.171 305.882 960.131 299.934 929.543C299.085 924.445 302.483 919.772 307.581 918.922C312.255 917.648 317.353 921.471 317.777 926.994Z" fill="black"/>
<path d="M613.462 1263.04C601.566 1261.77 593.07 1250.72 595.619 1238.82L600.292 1216.31C601.991 1207.39 610.488 1201.01 619.41 1202.29C628.331 1203.14 635.553 1210.79 635.553 1220.13V1243.07C635.978 1254.97 625.782 1264.31 613.462 1263.04Z" fill="black"/>
<path d="M809.313 1247.32C797.843 1251.57 785.522 1244.77 782.548 1232.88L777.026 1210.36C774.901 1201.44 779.575 1192.52 788.496 1189.12C796.993 1186.14 806.764 1189.97 810.588 1198.04L820.784 1218.86C825.882 1230.33 820.784 1243.5 809.313 1247.32Z" fill="black"/>
<path d="M1005.59 1234.58C1005.59 1234.58 1029.38 1367.97 1020.03 1446.14" stroke="black" stroke-width="5.1257" stroke-miterlimit="10" stroke-linecap="round" stroke-linejoin="round"/>
<path d="M450.75 911.7C444.802 894.707 442.253 877.289 443.528 859.446C443.528 857.746 444.802 856.896 446.501 856.896C447.776 856.896 449.051 858.171 449.051 859.446C450.325 875.589 454.998 892.158 462.645 906.178C466.469 914.674 453.724 920.197 450.75 911.7Z" fill="black"/>
<path d="M737.94 934.217C726.044 907.452 696.73 893.857 670.815 884.511C654.672 879.413 636.828 875.589 619.835 873.04C578.626 866.668 520.423 856.896 479.214 852.648C478.789 852.648 478.789 851.798 479.214 851.798C491.11 850.524 503.005 850.524 514.9 850.524C550.587 851.374 586.273 855.197 621.534 860.72C656.796 866.243 694.606 876.864 721.371 902.354C729.868 911.276 737.515 921.472 739.639 933.792C740.064 935.066 738.364 935.491 737.94 934.217Z" fill="black"/>
<path d="M777.449 1043.4C768.527 1087.16 710.749 1113.5 613.462 1073.99C512.351 1033.2 468.593 935.915 457.547 907.027C517.449 794.87 475.815 717.125 475.815 717.125C613.887 705.229 734.54 866.667 734.54 866.667L753.233 946.536C754.933 953.334 758.331 959.281 763.429 963.53C772.351 979.249 782.972 1015.36 777.449 1043.4Z" fill="white"/>
<path d="M455.424 908.301C463.496 895.981 468.594 881.536 471.993 867.517C478.365 838.203 480.49 808.465 480.914 778.726V767.68C479.64 756.634 475.816 745.164 471.568 734.968C466.045 721.373 486.012 712.876 492.385 726.471C493.235 728.17 493.235 731.144 493.235 732.844C494.509 790.621 497.058 864.968 460.522 912.974C457.973 915.523 452.875 911.7 455.424 908.301Z" fill="black"/>
<path d="M739.213 865.818C745.586 869.641 747.71 874.739 748.56 879.837C751.109 890.033 750.259 901.079 752.808 911.7C754.932 921.896 761.305 931.667 763.004 942.288C765.129 953.334 771.501 976.7 774.05 988.171C774.9 990.72 773.2 993.693 770.227 994.118C768.527 994.543 767.253 994.118 765.978 993.269C760.455 988.595 757.906 983.922 754.508 977.974C748.985 967.778 745.161 958.432 741.763 946.961C738.789 936.765 740.063 925.72 737.514 915.099C735.39 904.903 729.442 895.131 727.318 884.51C726.044 879.412 725.619 873.89 729.442 867.517C731.991 864.968 736.24 864.118 739.213 865.818Z" fill="black"/>
<path d="M769.803 977.974C688.659 973.726 622.385 948.236 557.81 833.105C612.189 881.112 676.339 899.379 743.888 907.876L752.81 946.961C754.509 953.759 764.705 973.726 769.803 977.974Z" fill="black"/>
<path d="M766.406 962.255C780.851 989.445 789.348 1023.43 780.426 1053.6C773.629 1074.84 754.086 1090.56 732.844 1096.5C683.563 1109.67 626.635 1088.86 582.877 1065.49C528.923 1035.33 488.988 984.772 463.498 929.543C461.798 925.295 467.746 921.896 470.295 926.144C479.217 943.987 489.413 961.406 500.883 977.125C512.354 993.268 525.524 1008.14 540.393 1021.31C583.727 1060.39 642.354 1084.61 700.982 1084.61C761.308 1082.91 784.25 1051.05 770.23 992.419C768.106 983.072 764.707 973.301 760.034 965.229C757.485 961.83 763.857 958.007 766.406 962.255Z" fill="black"/>
<path d="M930.817 452.027C938.464 487.713 942.287 516.602 921.47 611.765C901.078 706.504 950.784 726.046 833.104 877.713C785.098 939.739 668.692 922.321 574.379 858.17C542.516 836.504 528.921 780.85 505.13 741.34C486.438 710.327 477.941 742.615 453.3 715.85C419.738 679.314 379.379 605.818 399.346 475.818C431.634 265.099 598.594 240.458 722.222 263.824C846.699 287.615 910.424 358.138 930.817 452.027Z" fill="white"/>
<path d="M474.542 753.66C464.771 737.092 452.025 722.647 440.13 707.353C428.659 691.634 419.313 674.216 411.666 656.373C361.11 532.321 380.653 357.713 504.705 284.641C556.11 254.902 618.137 247.68 675.914 252.353C799.542 261.275 912.973 318.203 939.738 449.053C954.182 506.83 934.64 566.308 923.594 622.811C918.496 650.85 922.744 679.739 922.32 708.628C921.895 737.942 913.823 767.255 902.777 794.445C895.98 813.138 884.084 829.706 871.764 845C851.372 869.641 830.98 894.706 805.065 913.824C799.117 918.072 788.496 920.196 781.274 921.046C761.306 924.02 741.764 924.87 721.797 923.595C643.627 920.196 559.934 882.386 528.496 806.765C527.222 803.791 531.47 801.667 533.169 804.216C573.954 868.791 648.725 900.654 723.071 904.902C746.012 906.177 769.378 905.752 791.895 901.079C802.94 895.556 812.712 885.785 822.058 876.863C844.999 853.922 868.365 829.281 884.934 801.242C904.901 763.432 915.947 722.223 912.548 679.314C911.699 660.196 911.274 640.229 915.097 621.111C918.496 601.994 922.744 583.726 925.293 564.183C927.842 545.491 929.117 526.373 929.117 507.68C926.993 452.876 909.15 396.373 874.313 353.889C797.418 258.301 615.588 233.236 513.202 298.661C448.627 338.595 418.463 413.366 408.692 486.013C393.823 573.105 398.071 658.922 467.32 722.223L487.712 743.464C495.784 752.811 481.339 763.857 474.542 753.66Z" fill="black"/>
<path d="M524.671 618.562C524.671 618.562 511.501 554.837 449.475 562.484C395.945 569.281 377.253 697.582 498.756 733.268" fill="white"/>
<path d="M493.234 677.615C483.463 672.092 476.666 662.746 476.241 651.275C476.666 642.778 477.94 633.007 475.816 624.51C474.541 616.438 466.045 614.314 459.672 614.739C452.875 616.014 448.626 624.51 447.352 631.308C447.352 631.733 446.927 633.007 446.927 633.432C446.502 635.556 443.103 635.556 442.254 633.432C436.731 616.863 449.051 598.595 466.894 600.72C491.96 602.419 495.358 628.759 490.685 648.726C488.136 657.223 491.535 664.87 496.208 672.092L497.058 673.367C499.182 675.916 495.783 679.314 493.234 677.615Z" fill="black"/>
<path d="M833.102 573.53C839.475 603.693 851.37 631.732 866.24 658.072C879.41 690.36 845.423 720.948 815.259 719.673C811.861 719.673 811.436 715 814.41 714.151C833.527 708.203 850.946 695.458 853.919 675.915C855.194 669.968 853.495 664.87 850.521 659.772C836.501 633.432 828.004 603.268 830.129 573.53C830.129 571.405 833.102 571.405 833.102 573.53Z" fill="black"/>
<path d="M522.549 618.988C512.777 593.922 491.536 570.131 463.072 570.556C460.523 570.131 456.274 570.981 453.725 570.981C446.503 571.406 440.555 573.955 435.032 579.053C407.843 606.242 412.516 654.249 434.608 684.412C442.255 695.033 452.026 704.38 463.072 712.027C474.117 719.674 486.438 725.622 499.608 730.72C502.581 731.569 501.307 736.242 498.333 735.818C469.869 729.87 442.679 715.85 423.987 692.484C395.098 657.648 389.15 599.445 423.562 565.458C431.209 558.661 441.83 553.563 452.451 553.563C455.849 553.563 460.947 552.713 464.346 553.563C482.189 554.412 499.183 563.334 510.228 577.354C520 589.249 525.523 603.693 527.222 618.138C527.222 620.687 523.398 621.537 522.549 618.988Z" fill="black"/>
<path d="M791.044 760.457C791.469 767.255 786.371 779.15 777.024 787.647C729.018 758.333 707.351 773.627 707.351 773.627C690.358 747.712 694.181 712.451 735.39 739.215C763.854 757.908 781.697 760.882 791.044 760.457Z" fill="black"/>
<path d="M776.599 788.072C766.403 796.993 751.109 802.516 730.292 794.019C720.521 790.196 712.873 782.549 706.926 774.052C707.351 774.052 728.592 758.758 776.599 788.072Z" fill="white"/>
<path d="M799.116 759.183C799.116 759.183 781.273 768.954 735.39 739.64C680.586 704.379 691.632 778.3 730.292 794.019C770.652 810.588 791.469 774.477 791.044 760.882" stroke="black" stroke-width="3" stroke-miterlimit="10" stroke-linecap="round" stroke-linejoin="round"/>
<path d="M707.354 774.052C707.354 774.052 729.02 758.758 777.027 788.072" stroke="black" stroke-width="3" stroke-miterlimit="10" stroke-linecap="round" stroke-linejoin="round"/>
<path d="M737.09 528.497C746.436 529.771 753.658 520 750.26 510.654C748.56 505.556 745.586 500.883 740.913 497.909C726.469 488.987 672.514 488.137 644.05 508.53C618.56 527.222 694.606 522.549 737.09 528.497Z" fill="black"/>
<path d="M854.769 533.17C847.122 533.17 842.449 523.399 846.273 515.327C848.397 511.079 851.371 507.255 855.619 505.131C868.789 498.758 904.05 502.582 919.769 524.249C933.789 543.366 890.031 532.745 854.769 533.17Z" fill="black"/>
<path d="M721.371 583.301C699.704 573.954 675.064 576.503 652.547 581.601C649.998 582.451 648.299 579.052 650.423 577.353C669.966 561.209 706.926 559.085 722.645 581.177C723.92 582.026 723.07 583.726 721.371 583.301Z" fill="black"/>
<path d="M888.332 592.223C878.136 585 863.266 586.275 851.371 587.549C847.123 587.974 842.874 588.824 838.201 590.098C836.927 590.523 835.652 588.399 836.502 587.549L837.351 586.7C847.972 575.654 864.541 573.105 878.985 578.628C884.083 580.752 889.181 583.726 891.73 589.674C893.005 591.798 890.031 593.922 888.332 592.223Z" fill="black"/>
<path d="M972.452 362.81C950.36 174.183 763.007 110.457 799.118 236.209C799.118 236.209 749.837 157.189 638.955 152.941C543.792 149.542 601.569 217.091 601.569 217.091C601.569 217.091 527.648 174.608 402.321 238.333C293.138 293.987 394.249 342.843 394.249 342.843C394.249 342.843 311.831 386.601 310.556 480.915C310.131 505.555 330.524 543.366 378.955 531.046C366.635 624.934 423.988 701.83 450.328 733.268C484.314 774.052 487.288 805.065 487.288 805.065C504.707 795.294 484.314 751.536 484.739 728.595C378.53 687.81 397.648 569.281 449.478 562.483C503.857 555.686 520.85 604.117 523.824 616.013C532.746 605.392 535.295 564.183 540.393 520.425C556.112 515.327 570.131 509.804 581.602 502.581C626.635 475.817 647.877 429.51 693.759 402.32C774.053 354.313 794.87 462.647 837.779 422.712C887.484 376.83 923.596 413.366 934.641 469.869C938.89 490.261 964.805 488.562 968.628 468.17C974.576 438.431 977.125 402.745 972.452 362.81Z" fill="black"/>
</g>
</svg>
