<?xml version="1.0" standalone="no"?>
<!DOCTYPE svg PUBLIC "-//W3C//DTD SVG 20010904//EN"
 "http://www.w3.org/TR/2001/REC-SVG-20010904/DTD/svg10.dtd">
<svg version="1.0" xmlns="http://www.w3.org/2000/svg"
 width="5200.000000pt" height="5200.000000pt" viewBox="0 0 5200.000000 5200.000000"
 preserveAspectRatio="xMidYMid meet">
<metadata>
Created by potrace 1.14, written by Peter Selinger 2001-2017
</metadata>
<g transform="translate(0.000000,5200.000000) scale(0.100000,-0.100000)"
fill="#000000" stroke="none">
<path d="M25035 45884 c-680 -35 -1136 -172 -1405 -421 -107 -99 -190 -233
-231 -375 -27 -93 -36 -292 -20 -410 52 -365 262 -808 588 -1240 45 -60 80
-108 79 -108 -2 0 -43 18 -92 41 -497 230 -1162 396 -1849 463 -538 53 -1184
46 -1770 -20 -1124 -125 -2347 -476 -3560 -1021 -254 -115 -652 -309 -855
-417 -1071 -574 -1681 -1178 -1825 -1808 -109 -478 77 -981 540 -1457 272
-281 600 -528 981 -742 79 -45 144 -83 144 -85 0 -2 -33 -22 -72 -45 -423
-246 -927 -646 -1348 -1068 -1085 -1089 -1720 -2373 -1879 -3796 -46 -411 -50
-725 -11 -960 137 -836 699 -1493 1443 -1684 198 -52 318 -65 557 -65 223 1
385 18 592 65 48 10 94 19 101 19 11 0 11 -18 0 -105 -37 -314 -47 -512 -47
-940 0 -460 11 -647 60 -1035 161 -1275 614 -2574 1339 -3840 428 -748 893
-1407 1565 -2220 257 -310 561 -742 756 -1075 190 -325 414 -797 414 -874 l0
-41 -52 0 c-29 0 -138 -7 -243 -15 -556 -43 -752 -55 -969 -60 l-239 -6 -231
-55 c-1793 -424 -3152 -1045 -4142 -1890 -179 -154 -481 -454 -623 -619 -346
-404 -571 -764 -656 -1049 -53 -178 -67 -277 -67 -466 0 -182 8 -274 53 -585
28 -189 31 -227 26 -375 -5 -165 -11 -196 -63 -367 -10 -35 -24 -65 -30 -67
-7 -3 -70 -46 -140 -97 -322 -232 -717 -487 -1484 -959 -917 -564 -1230 -771
-1710 -1128 -136 -102 -351 -313 -474 -467 -334 -419 -710 -1143 -939 -1812
-188 -548 -331 -1218 -403 -1890 l-16 -152 22 -28 c12 -16 126 -138 253 -272
210 -222 232 -242 238 -220 4 13 12 112 18 219 49 819 163 1421 401 2125 284
839 650 1526 993 1867 253 251 842 656 1967 1353 619 383 931 579 1149 722
112 74 204 133 206 131 1 -2 19 -70 39 -153 331 -1316 1101 -2854 2064 -4125
1004 -1323 2290 -2501 3772 -3452 1120 -718 2310 -1312 3604 -1797 135 -51
196 -69 215 -65 69 17 115 110 88 177 -9 19 -26 43 -40 51 -13 9 -134 63 -268
120 -1764 747 -3348 1706 -4614 2791 -422 361 -944 866 -1276 1231 -1380 1520
-2299 3148 -2774 4909 -52 195 -133 554 -165 730 -24 132 -55 214 -101 261
l-31 32 23 98 c19 84 23 127 22 279 0 184 -1 191 -69 615 -67 417 -17 663 211
1040 349 579 906 1128 1615 1596 856 564 1969 1034 3170 1339 l225 57 345 -6
c543 -10 1074 -27 1082 -35 13 -12 -25 -654 -63 -1061 -53 -575 -127 -1088
-230 -1598 -104 -517 -269 -1014 -471 -1416 l-55 -109 -51 119 c-195 456 -319
937 -373 1449 -12 120 -24 154 -63 174 -34 19 -112 9 -139 -17 -30 -30 -40
-189 -33 -522 8 -459 63 -837 182 -1270 44 -158 111 -364 135 -411 58 -117
198 -159 327 -97 44 21 45 22 33 53 -5 13 -2 26 10 39 34 36 176 240 251 361
429 688 721 1525 893 2555 75 448 122 898 160 1520 8 129 22 271 30 315 12 60
14 123 11 250 -2 94 -9 523 -14 955 -5 432 -13 872 -17 978 -5 134 -4 192 3
192 6 0 48 -9 94 -20 133 -32 174 -26 203 30 20 39 19 93 -2 118 -10 11 -90
50 -178 85 -866 349 -1494 743 -2015 1267 -462 464 -780 966 -975 1540 -339
1000 -270 2015 189 2765 227 370 489 606 782 705 193 65 612 98 900 69 412
-41 801 -207 1159 -496 124 -100 346 -325 451 -458 206 -260 400 -592 520
-889 25 -61 55 -119 66 -128 40 -35 129 -12 149 39 9 25 1 116 -22 236 -6 36
-5 55 5 75 27 52 87 238 121 372 111 445 175 904 335 2395 39 363 76 707 83
764 l12 103 255 88 c711 243 1141 449 1654 792 562 375 1034 808 1807 1653
654 716 831 903 1118 1179 567 545 1105 936 1656 1202 910 440 1698 415 2520
-79 210 -126 411 -272 805 -587 135 -108 291 -230 347 -273 485 -367 834 -485
1174 -398 197 50 367 155 604 371 453 413 925 677 1371 767 127 25 454 25 574
0 264 -56 509 -178 725 -359 158 -132 179 -159 226 -283 387 -1025 634 -2188
699 -3290 6 -99 12 -202 14 -230 4 -82 -12 -765 -24 -965 -55 -945 -138 -1547
-385 -2820 -215 -1104 -240 -1275 -266 -1805 -13 -256 -7 -959 11 -1250 33
-556 35 -805 9 -1205 -75 -1158 -413 -2348 -1004 -3530 -98 -197 -171 -323
-323 -555 -472 -723 -1084 -1450 -2017 -2394 -700 -708 -1089 -1042 -1416
-1215 -78 -41 -99 -47 -289 -80 -882 -154 -1972 -179 -3060 -70 -1760 176
-3416 743 -4740 1624 -489 324 -854 623 -1266 1035 -386 385 -672 732 -958
1160 -124 184 -138 202 -177 210 -57 13 -129 -45 -129 -104 0 -28 104 -260
215 -481 458 -906 1128 -1696 2003 -2358 140 -107 141 -108 284 -297 1250
-1660 2613 -2705 4241 -3250 639 -214 1350 -362 2118 -441 l166 -17 24 -46
c53 -100 179 -302 232 -373 80 -106 214 -237 265 -260 29 -13 60 -18 95 -17
l52 3 22 -99 c33 -148 80 -439 100 -615 23 -214 23 -655 0 -833 -82 -610 -318
-1076 -713 -1406 -654 -545 -1707 -758 -3074 -620 -2426 244 -4767 1476 -6444
3391 -653 747 -1279 1685 -1808 2713 -125 242 -144 265 -222 265 -82 -1 -146
-59 -154 -139 -4 -43 4 -65 103 -271 900 -1886 2164 -3469 3655 -4577 430
-320 854 -580 1365 -838 1367 -689 2547 -1069 3726 -1197 279 -30 923 -33
1179 -5 344 38 683 107 913 187 438 151 822 387 1137 700 329 327 536 681 640
1095 74 291 99 485 107 825 10 450 -34 820 -154 1295 -92 367 -263 837 -409
1127 -44 86 -200 703 -279 1103 -31 156 -86 326 -176 548 -44 110 -64 169 -56
171 7 2 84 9 172 15 283 20 810 84 1045 127 113 20 327 76 420 109 180 65 332
166 660 439 241 201 432 377 708 653 l262 262 55 -74 c293 -395 570 -935 811
-1577 136 -360 378 -1094 468 -1413 51 -183 125 -476 156 -615 43 -199 45
-780 5 -1260 -132 -1584 -581 -3037 -1313 -4250 -106 -176 -373 -573 -488
-726 -222 -296 -457 -558 -870 -970 -236 -236 -314 -320 -319 -343 -14 -66 56
-141 132 -141 26 0 51 16 125 77 375 316 800 751 1122 1152 1016 1261 1704
2814 1991 4493 74 434 115 851 139 1396 2 51 6 95 8 97 9 9 1067 -375 1328
-482 674 -276 1239 -562 1550 -785 765 -547 1398 -1397 1868 -2508 419 -992
840 -2179 1162 -3278 l21 -73 147 113 c274 209 291 223 287 238 -48 202 -430
1376 -615 1890 -230 644 -488 1309 -610 1575 -291 636 -502 980 -958 1563
-385 493 -914 924 -1587 1292 -405 223 -969 469 -1565 685 -102 37 -300 118
-440 180 -140 62 -339 148 -442 190 -187 77 -188 77 -197 114 -220 862 -461
1623 -697 2204 -245 603 -534 1130 -835 1525 -44 57 -79 105 -79 107 0 3 74
91 165 196 200 230 726 860 880 1054 443 557 770 1058 982 1503 108 227 315
760 449 1155 283 835 445 1609 495 2367 13 195 6 1129 -10 1454 -24 466 -33
1039 -22 1333 25 640 57 842 337 2113 229 1037 286 1307 369 1760 170 931 236
1578 236 2313 0 343 1 368 17 362 101 -39 277 -46 394 -16 196 50 360 185 459
376 52 102 72 173 123 455 144 786 208 1517 208 2365 0 1586 -242 3004 -739
4325 -559 1486 -1442 2799 -2518 3741 -868 761 -1797 1212 -2560 1246 -648 28
-1116 -267 -1300 -820 -137 -411 -123 -957 39 -1593 24 -93 43 -170 42 -171
-1 -1 -44 57 -96 129 -193 267 -448 556 -746 848 -1508 1475 -3544 2305 -5724
2334 -157 2 -316 2 -355 0z"/>
<path d="M27950 32314 c-249 -21 -325 -28 -455 -45 -528 -70 -1014 -213 -1410
-417 -264 -136 -463 -287 -508 -384 -110 -236 307 -359 1478 -433 132 -8 454
-26 715 -40 806 -43 1151 -68 1514 -110 254 -30 324 -31 408 -5 161 50 300
206 338 382 59 266 -122 644 -390 817 -150 97 -431 173 -795 216 -132 16 -771
29 -895 19z"/>
<path d="M34685 31900 c-281 -19 -478 -88 -613 -215 -83 -77 -143 -155 -197
-258 -55 -102 -75 -178 -75 -282 0 -199 95 -366 248 -438 l67 -31 345 -7 c332
-7 512 -17 1075 -59 891 -67 1232 -45 1333 88 58 76 26 196 -94 354 -371 485
-1030 799 -1782 848 -81 5 -158 9 -172 8 -14 0 -74 -4 -135 -8z"/>
<path d="M27183 29384 c-259 -31 -530 -112 -768 -229 -168 -82 -314 -174 -387
-245 -41 -39 -48 -52 -48 -84 0 -28 7 -45 30 -68 36 -36 13 -37 320 25 989
201 1779 178 2418 -73 107 -41 149 -49 170 -28 21 21 14 38 -53 123 -252 323
-658 531 -1140 585 -124 14 -407 11 -542 -6z"/>
<path d="M33226 29107 c-43 -31 -43 -626 -1 -1005 50 -448 145 -875 294 -1322
132 -395 249 -671 453 -1070 71 -140 144 -295 161 -345 30 -85 32 -99 32 -235
0 -103 -5 -170 -18 -230 -44 -206 -141 -427 -260 -597 -76 -108 -253 -292
-367 -383 -245 -195 -565 -363 -895 -470 -91 -30 -125 -63 -125 -122 0 -110
80 -135 351 -108 361 36 691 157 1013 370 608 404 945 1015 896 1624 -20 243
-64 375 -221 661 -427 780 -781 1614 -1009 2375 -22 74 -40 138 -40 142 0 4 8
6 18 6 9 -1 87 15 172 35 238 55 527 90 862 103 405 16 739 -57 967 -210 65
-44 110 -48 146 -11 34 33 31 65 -10 144 -118 224 -367 385 -725 467 -282 64
-589 51 -853 -37 -195 -64 -376 -172 -522 -311 -55 -52 -87 -75 -90 -67 -8 24
-93 371 -116 478 -13 57 -29 110 -37 117 -17 18 -53 18 -76 1z"/>
<path d="M18435 27970 c-402 -64 -716 -393 -785 -822 -17 -107 -8 -310 19
-413 25 -97 59 -135 120 -135 63 0 80 22 102 130 64 316 208 551 395 645 57
29 64 30 189 30 108 0 143 -4 205 -24 104 -32 158 -62 223 -121 71 -65 110
-143 136 -270 45 -220 51 -414 25 -814 -13 -202 -14 -266 -5 -335 53 -383 277
-709 637 -926 90 -54 164 -42 200 33 23 48 14 76 -57 184 -111 169 -195 356
-230 513 -22 101 -16 273 14 395 95 389 99 822 11 1128 -63 218 -148 374 -274
502 -122 124 -211 182 -370 238 -152 53 -418 83 -555 62z"/>
<path d="M28293 22835 c-130 -28 -256 -117 -330 -233 -184 -287 -139 -799 117
-1317 254 -516 638 -900 1090 -1092 618 -263 1230 -240 1707 64 411 260 735
724 812 1161 l17 97 70 8 c80 8 189 39 222 62 27 19 30 66 5 90 -19 19 -32 18
-148 -16 -71 -20 -102 -23 -265 -23 -128 0 -215 6 -283 17 -490 85 -1046 316
-1661 690 -100 61 -239 146 -311 190 -412 251 -782 359 -1042 302z m892 -1706
c507 -44 1104 -259 1718 -616 l68 -40 -38 -30 c-174 -136 -391 -236 -616 -285
-86 -18 -134 -22 -302 -23 -208 0 -270 7 -446 51 -487 121 -841 357 -1148 764
-22 30 -41 58 -41 61 0 22 230 91 365 108 170 23 272 25 440 10z"/>
<path d="M15543 13498 c-13 -6 -25 -19 -28 -29 -3 -10 8 -100 25 -201 127
-754 465 -1628 967 -2496 936 -1620 2338 -2993 4000 -3920 245 -137 619 -322
650 -322 37 0 83 51 83 92 0 19 -6 41 -12 50 -7 9 -116 98 -243 199 -2264
1798 -4045 3972 -5206 6354 -64 132 -125 248 -136 257 -25 23 -72 30 -100 16z"/>
<path d="M30769 6470 c-46 -24 -69 -60 -69 -105 0 -21 33 -127 76 -243 171
-465 379 -1111 509 -1585 l57 -208 -60 -58 c-73 -71 -114 -130 -157 -224 -48
-105 -60 -167 -59 -297 1 -112 4 -128 123 -610 68 -272 134 -524 148 -560 96
-240 280 -411 528 -490 107 -34 292 -39 409 -11 222 53 388 166 500 339 144
221 175 519 82 764 -13 35 -127 273 -254 530 l-231 467 -78 79 c-134 135 -276
199 -467 211 l-109 6 -78 229 c-188 548 -376 1031 -584 1498 -104 231 -115
251 -159 272 -44 21 -82 20 -127 -4z"/>
<path d="M25327 6321 c-15 -10 -35 -27 -43 -39 -22 -32 -194 -557 -278 -847
-125 -436 -236 -891 -321 -1310 l-42 -210 -53 -8 c-224 -32 -432 -192 -529
-409 -32 -71 -37 -92 -157 -663 -101 -483 -112 -588 -75 -736 25 -102 94 -243
155 -321 100 -126 273 -235 441 -279 111 -29 298 -29 409 0 222 58 412 211
506 406 78 162 75 126 75 815 l0 615 -28 80 c-31 90 -78 173 -134 241 -34 41
-140 131 -187 159 -16 9 -15 27 18 245 85 559 214 1145 412 1867 41 149 74
279 74 290 0 29 -37 81 -72 103 -44 26 -132 27 -171 1z"/>
</g>
</svg>
